<?xml version="1.0" encoding="UTF-8" standalone="no"?>
<!-- Created with Inkscape (http://www.inkscape.org/) -->

<svg
   width="151.88794mm"
   height="86.707832mm"
   viewBox="0 0 151.88794 86.707832"
   version="1.1"
   id="svg1"
   xml:space="preserve"
   xmlns="http://www.w3.org/2000/svg"
   xmlns:svg="http://www.w3.org/2000/svg"><defs
     id="defs1" /><g
     id="layer1"
     transform="translate(-31.119378,-20.066139)"><path
       style="fill:#000000"
       d="m 56.934109,106.5244 c -1.556712,-0.1198 -4.31387,-0.51819 -6.127017,-0.88531 -9.674178,-1.9588 -15.941039,-5.61567 -17.118708,-9.989204 -0.676603,-2.512708 0.783613,-5.197188 3.454235,-6.350288 2.761816,-1.19249 3.834852,-1.32957 11.743418,-1.5002 l 7.642376,-0.16489 -1.594295,-1.25168 c -2.582328,-2.02741 -4.659793,-5.21827 -6.895071,-10.59043 -0.335962,-0.80743 -1.060506,-1.1829 -4.017261,-2.08182 -4.155247,-1.26327 -11.40753,-5.43494 -12.592536,-7.24349 -0.393617,-0.60073 -0.403378,-0.77007 -0.07961,-1.38104 0.774934,-1.46234 5.766746,-5.01666 12.226692,-8.70577 1.918488,-1.0956 3.828784,-2.31019 4.245102,-2.69909 0.416318,-0.3889 1.479287,-1.77865 2.362153,-3.08834 3.081063,-4.57059 8.677175,-10.72 11.873104,-13.04701 1.012985,-0.73757 1.54866,-1.32955 1.653433,-1.82722 0.08524,-0.4049 0.268801,-3.23649 0.407908,-6.29243 0.265007,-5.8217 0.644387,-7.90834 1.614166,-8.87812 0.638836,-0.63884 0.962548,-0.64077 2.739123,-0.0164 2.655326,0.93327 5.955403,3.51271 12.757944,9.97199 l 4.002271,3.80031 3.406063,-0.93371 c 23.965821,-6.56984 38.184621,-8.72682 48.792161,-7.40175 12.47789,1.55872 22.43634,6.3131 31.297,14.94189 12.1212,11.80399 17.01187,26.3191 12.78836,37.95474 -3.12949,8.62164 -11.41543,14.645658 -23.98209,17.435358 -2.62535,0.58281 -5.15207,0.64487 -33.34249,0.81894 l -6.48229,0.04 -3.43959,-1.82432 c -4.6888,-2.486898 -6.09807,-3.405328 -7.84523,-5.112808 l -1.49523,-1.46126 -1.75249,1.25055 c -2.02599,1.44571 -3.961234,2.25305 -5.400729,2.25305 -1.091072,0 -3.778828,-0.99207 -5.184956,-1.91381 -1.8266,-1.19737 -2.778301,-3.48862 -2.821696,-6.79334 -0.03144,-2.39453 -0.247314,-3.30041 -0.812423,-3.40924 -0.58143,-0.11198 -4.980043,2.01376 -5.165169,2.49619 -0.09077,0.23653 0.100367,0.56127 0.479079,0.81396 1.273717,0.84988 3.826789,3.68734 4.576797,5.08661 1.539818,2.8728 0.882673,4.873088 -2.091212,6.365458 l -1.845344,0.92605 -4.195517,-0.0319 -4.195517,-0.0319 1.459189,1.42469 c 6.48213,6.328904 -3.35382,10.688244 -21.044105,9.326844 z m 13.381201,-1.59065 c 4.793198,-0.49815 7.510779,-1.78542 8.073767,-3.82439 0.293382,-1.06254 0.01292,-2.362354 -0.509733,-2.362354 -0.207565,0 -0.471007,0.43593 -0.604459,1.00022 -0.405414,1.714264 -2.466162,2.795074 -6.397889,3.355514 -2.463029,0.35108 -10.173231,0.34506 -13.778528,-0.0108 -8.052166,-0.79472 -15.425045,-3.259174 -18.356337,-6.135774 -3.372587,-3.30966 -1.724769,-5.216488 5.015072,-5.803378 3.458886,-0.30119 14.009689,0.0855 19.711459,0.72241 1.891771,0.21132 4.187913,0.3854 5.102538,0.38686 1.594254,0.003 1.650976,-0.0197 1.372976,-0.53919 -0.444768,-0.83106 -1.362241,-1.05584 -5.946347,-1.45685 -2.328334,-0.20368 -5.364428,-0.51051 -6.746876,-0.68184 -1.382448,-0.17133 -5.430573,-0.32291 -8.995833,-0.33685 -7.195519,-0.0281 -8.947086,0.23411 -10.976295,1.64332 -2.953874,2.05136 -2.964364,4.415718 -0.0326,7.347488 1.957242,1.957244 4.641656,3.391144 9.127104,4.875314 6.398416,2.11715 14.880451,2.76202 23.941981,1.82028 z m -1.475611,-2.88403 c 4.441534,-0.39315 7.34597,-1.62 7.14153,-3.016624 -0.226662,-1.54842 -4.654028,-3.37149 -11.851109,-4.87997 -6.447097,-1.351288 -7.83957,-1.484008 -15.610417,-1.487898 -7.235379,-0.004 -7.283435,6e-5 -8.598959,0.657818 -0.727604,0.36381 -1.358355,0.85395 -1.401668,1.0892 -0.141081,0.76628 1.165533,1.93749 3.555847,3.18734 5.486481,2.868784 11.718155,4.232154 20.732281,4.535824 1.236927,0.0417 2.427552,0.099 2.645833,0.12736 0.218281,0.0284 1.742279,-0.0675 3.386662,-0.21305 z m 84.897611,-7.929304 c 4.49169,-0.27655 6.47952,-0.66406 9.44097,-1.840478 10.96879,-4.35727 16.19211,-10.35284 16.97488,-19.48457 0.1934,-2.25611 -0.33361,-7.21122 -1.06406,-10.00466 -1.88571,-7.21152 -8.08957,-16.03811 -15.87251,-22.58271 -5.03098,-4.23051 -8.95674,-6.54269 -14.41979,-8.4929 -7.68137,-2.74212 -12.35588,-3.34744 -22.75417,-2.94651 -7.79424,0.30053 -14.0834,1.04218 -20.10834,2.3713 -6.669607,1.47133 -18.785419,4.88056 -18.785419,5.28597 0,0.2948 2.463768,2.00722 5.159376,3.58599 1.455208,0.85228 3.262665,2.01217 4.01657,2.57753 2.507957,1.88073 4.589003,5.18321 5.246543,8.32591 0.41903,2.00274 0.54165,2.18782 1.01798,1.5364 0.61125,-0.83594 0.71965,-0.017 0.19832,1.49827 -0.2715,0.78916 -0.58067,1.94993 -0.68704,2.5795 l -0.19339,1.14468 0.97268,-0.18247 c 0.88381,-0.16581 0.94914,-0.13851 0.71512,0.29877 -0.14166,0.26469 -0.51961,0.71804 -0.8399,1.00746 -2.02157,1.82672 -7.291716,9.30708 -8.665839,12.30016 -1.914877,4.17094 -2.959195,11.22182 -2.199957,14.85336 0.314646,1.50499 1.856211,3.75974 2.284301,3.3411 0.109151,-0.10674 0.177234,-0.90132 0.151297,-1.76573 -0.05972,-1.99039 0.356644,-2.27976 0.85682,-0.59549 0.59558,2.00554 1.139934,2.86987 1.995207,3.16802 1.309691,0.45656 3.038441,-0.32102 4.680451,-2.10523 2.06727,-2.24628 2.66955,-3.76736 3.67725,-9.28704 0.82003,-4.49167 1.46124,-5.98448 4.06388,-9.46107 1.03493,-1.38245 2.56862,-3.86297 3.4082,-5.51227 l 1.52652,-2.99873 -0.0307,-2.82211 c -0.0474,-4.36367 -1.18544,-7.10696 -4.56896,-11.0137 -0.87722,-1.01288 -1.54601,-1.89055 -1.48618,-1.95038 0.27431,-0.2743 2.57897,1.41027 3.93877,2.879 3.30319,3.56784 4.65148,8.04904 3.99632,13.28225 -0.10476,0.83675 -0.0875,1.52238 0.0385,1.52362 0.12591,0.001 1.56838,-0.31315 3.20548,-0.69867 l 2.97657,-0.70093 v -2.83088 c 0,-3.42261 0.61111,-6.0873 2.0946,-9.13324 3.31129,-6.79889 9.33442,-10.30739 17.61686,-10.26192 1.95674,0.0107 3.6826,0.16597 4.49791,0.40454 l 1.32292,0.3871 -2.38125,0.18337 c -7.85504,0.60487 -11.45411,1.88782 -14.83581,5.28851 -3.93443,3.95651 -5.19962,9.1336 -3.6724,15.02732 0.66464,2.56493 0.98655,2.99683 3.03655,4.07407 3.21925,1.69167 6.73364,5.39186 8.54139,8.99298 0.73829,1.47071 1.50631,4.15236 1.50631,5.25951 v 0.7041 l 4.29948,-0.16319 c 6.18186,-0.23463 9.00668,-0.59298 11.68252,-1.48199 5.45347,-1.81184 9.68113,-4.75777 12.10801,-8.43715 1.11054,-1.68367 1.42984,-2.01817 1.49935,-1.57065 0.13297,0.85612 -1.33452,3.59686 -2.99027,5.58475 -2.59466,3.11513 -5.86631,5.16405 -11.31866,7.0885 l -2.27349,0.80244 -11.86128,0.008 c -14.92794,0.01 -17.58667,0.18717 -21.41891,1.42962 -3.01837,0.97859 -5.10989,2.15996 -6.02652,3.40403 -0.46901,0.63656 -0.49054,0.77508 -0.15358,0.98814 0.21554,0.13629 0.86814,0.25075 1.45023,0.25434 l 1.05833,0.007 -1.34604,0.77205 c -2.26227,1.29757 -2.74044,2.53956 -1.5311,3.97679 1.40054,1.664438 2.38032,1.942398 7.50735,2.129858 7.38397,0.26997 28.3317,0.2694 32.72176,-8.8e-4 z m -75.396352,-0.79737 c 0.169281,-0.647328 0.134695,-0.647298 1.194747,-9.8e-4 0.984152,0.60003 1.804319,0.67692 2.268583,0.21265 0.443512,-0.443508 0.396381,-1.668908 -0.07937,-2.063748 -0.509795,-0.42309 -0.51247,-1.05833 -0.0045,-1.05833 0.21583,0 0.686556,0.58045 1.046059,1.2899 0.620032,1.22357 1.076163,1.620508 1.862147,1.620508 0.608789,0 0.68925,-0.816038 0.238763,-2.421558 -0.24099,-0.85888 -0.367678,-1.63209 -0.281528,-1.71824 0.08615,-0.0861 0.489702,0.4077 0.896784,1.09744 1.368841,2.31931 1.930774,2.48375 1.930774,0.56501 0,-2.86626 -4.544891,-6.9179 -7.198483,-6.41726 -1.198651,0.22615 -8.417473,4.17071 -8.864335,4.84372 -0.322557,0.4858 -0.286259,0.63618 0.33046,1.36911 0.940684,1.11794 2.032305,1.86187 3.797653,2.58807 1.865395,0.767348 2.679081,0.793988 2.862208,0.0937 z m 32.620412,-2.422698 c 0,-0.15115 -0.5057,-1.30498 -1.12378,-2.56407 l -1.12378,-2.28926 -0.13299,-4.54252 c -0.0731,-2.49838 -0.21436,-4.62366 -0.31382,-4.72285 -0.0995,-0.0992 -0.29532,-0.10957 -0.43525,-0.0231 -0.38545,0.23822 -1.15798,4.80534 -1.17474,6.94486 -0.0128,1.63316 0.11231,2.15736 0.92135,3.86097 1.25027,2.63272 3.38301,4.7358 3.38301,3.33597 z m -41.751043,-3.68486 c 1.84029,-0.37635 6.938791,-2.83004 11.066088,-5.32564 1.81532,-1.09764 4.027341,-2.36043 4.915603,-2.80619 1.786173,-0.89636 3.606836,-2.74386 4.512523,-4.57904 0.314213,-0.63668 1.237525,-2.52682 2.051805,-4.20031 0.81428,-1.67349 2.492707,-4.47146 3.729837,-6.21771 1.23713,-1.74625 2.556958,-3.79342 2.93295,-4.54928 0.861459,-1.73178 1.168292,-4.15236 0.883923,-6.97318 -0.413565,-4.10241 -2.394175,-6.82821 -7.700853,-10.59824 -4.242944,-3.01431 -6.268984,-4.72968 -10.955541,-9.27562 -8.64042,-8.38116 -12.83661,-11.14944 -13.897025,-9.16804 -0.440557,0.82319 -0.144894,11.28763 0.402291,14.23832 0.458346,2.47164 0.534807,3.96875 0.202694,3.96875 -0.317726,0 -1.46711,-1.31186 -2.148877,-2.45264 l -0.596098,-0.99743 -1.893409,1.64471 c -3.087597,2.68204 -6.962719,6.80371 -8.718642,9.27337 -1.360192,1.91307 -4.154976,6.62574 -4.154976,7.00627 0,0.0579 0.366208,0.23299 0.813796,0.38902 0.447587,0.15603 0.715478,0.3758 0.595312,0.48838 -0.120166,0.11258 -1.444574,0.518 -2.943129,0.90094 -3.316678,0.84754 -6.014973,1.89473 -9.238215,3.58531 -2.351772,1.23349 -5.631932,3.56332 -5.631932,4.00023 0,0.11671 0.757875,0.753 1.684167,1.41398 2.270991,1.62055 7.705703,4.20384 10.583737,5.03079 3.514115,1.00972 3.634373,1.09346 4.284289,2.98332 0.93937,2.73155 2.950636,5.81426 5.408225,8.2893 2.325875,2.34238 4.225552,3.50082 6.473026,3.9473 1.600609,0.31797 5.748146,0.30855 7.338431,-0.0167 z m -7.183075,-9.22414 c -0.302183,-0.19117 -0.218376,-0.30682 0.396875,-0.54764 3.111146,-1.2178 5.149444,-2.87488 6.904821,-5.61345 1.658744,-2.58781 2.496928,-2.32237 1.920382,0.60816 -0.378233,1.92252 -0.984782,2.92707 -2.375783,3.93471 -2.10124,1.52213 -5.666258,2.36477 -6.846295,1.61822 z m 21.946619,-1.19466 c 0,-0.23407 0.19734,-0.72676 0.438534,-1.09487 0.416572,-0.63577 0.410213,-0.6976 -0.126965,-1.23478 -0.460978,-0.46098 -0.994387,-0.59351 -2.88593,-0.71706 -2.246845,-0.14675 -3.511056,-0.53665 -3.511056,-1.08285 0,-0.47358 3.548241,-3.82339 4.440255,-4.19193 0.477609,-0.19733 0.930931,-0.29623 1.007382,-0.21978 0.07645,0.0764 0.305956,1.25334 0.51001,2.6153 0.501823,3.34944 0.957478,3.72005 3.368916,2.74013 0.922865,-0.37502 0.472298,0.64972 -0.576893,1.31204 -0.571953,0.36106 -1.197937,0.98617 -1.391077,1.38915 -0.39496,0.82405 -1.273176,1.15836 -1.273176,0.48465 z m -37.703126,-6.887 c -0.145521,-0.0485 -0.592006,-0.16047 -0.992188,-0.24873 -1.295346,-0.2857 -0.848561,-0.7571 0.529167,-0.55833 1.852874,0.26733 2.447396,0.43766 2.447396,0.7012 0,0.22236 -1.409695,0.29756 -1.984375,0.10586 z m 46.975546,-6.35225 c -0.02183,-0.57619 2.565812,-4.25726 2.816476,-4.00659 0.211085,0.21108 -0.900727,2.1244 -1.866951,3.21284 -0.516725,0.58208 -0.944011,0.93927 -0.949525,0.79375 z m -1.599503,-0.60973 c 0,-0.18634 1.596827,-2.81709 3.619449,-5.96299 1.147762,-1.78518 0.966855,-0.82622 -0.310815,1.64758 -1.354958,2.62345 -2.636135,4.52826 -3.04571,4.52826 -0.144608,0 -0.262924,-0.0958 -0.262924,-0.21285 z m -11.110641,-2.34901 c 0.001,-0.26446 0.716012,-1.37381 1.588866,-2.46522 1.860463,-2.3263 2.641456,-4.18431 2.64552,-6.29378 0.0046,-2.36887 0.262351,-3.53402 0.761315,-3.44102 1.250165,0.23302 1.8233,5.94923 0.806996,8.04863 -0.961968,1.98716 -3.069103,3.78644 -5.209244,4.44817 -0.466797,0.14434 -0.594911,0.0803 -0.593453,-0.29678 z M 70.026161,38.750878 c -0.719006,-1.47861 -1.025481,-2.52449 -1.514618,-5.16877 -0.397345,-2.14806 -0.628933,-6.80598 -0.352149,-7.08276 0.07692,-0.0769 0.223737,0.66922 0.326271,1.65808 0.311112,3.00043 1.167012,7.69027 1.759436,9.64069 0.307826,1.01345 0.507319,1.89501 0.443317,1.95901 -0.064,0.064 -0.362017,-0.38881 -0.662257,-1.00625 z m 9.663086,-2.51167 c -0.236482,-0.40018 -1.155121,-1.54894 -2.041422,-2.55279 -2.654236,-3.00628 -1.816653,-3.03255 0.991068,-0.0311 1.238957,1.32445 1.630811,1.93174 1.630811,2.52741 0,0.96383 -0.04186,0.96791 -0.580457,0.0565 z m 31.946873,49.22767 c 0.23685,-2.52746 -0.008,-6.60813 -0.42667,-7.11266 -0.49115,-0.59181 -1.0131,-0.44366 -1.23522,0.35061 -0.52589,1.88049 -0.007,7.50543 0.78083,8.46666 0.52357,0.63871 0.69201,0.31281 0.88106,-1.70461 z m 3.05122,-2.60613 c 0.8304,-0.42942 0.81833,-0.6142 -0.10727,-1.64238 -0.87753,-0.97477 -1.23744,-0.76315 -1.23744,0.72761 0,1.43905 0.14289,1.53625 1.34471,0.91477 z m 3.92994,-1.95699 c 0.3301,-0.20888 0.3301,-0.3004 0,-0.69858 -1.05764,-1.27579 -8.65356,-6.72587 -9.37401,-6.72587 -0.32399,0 -0.92773,0.74916 -0.92773,1.15119 0,0.19507 7.39681,5.32589 8.59505,5.96198 1.19959,0.63681 1.19388,0.63577 1.70669,0.31128 z m 3.89678,-1.22418 c 0.0994,-0.25894 -0.1766,-0.76563 -0.73591,-1.35114 -0.94484,-0.98911 -5.68834,-4.61777 -8.91468,-6.81951 l -1.91805,-1.30893 -0.71963,0.72723 c -0.64456,0.65138 -0.67323,0.75372 -0.27482,0.98115 0.24465,0.13966 2.38726,1.69564 4.76136,3.45774 4.30737,3.197 6.66233,4.72059 7.30371,4.72529 0.18647,0.001 0.41058,-0.18396 0.49802,-0.41183 z m 2.63199,-0.7995 c 0.42982,-1.71254 -0.72309,-8.68524 -1.98669,-12.01535 -0.95551,-2.51815 -1.47709,-3.175 -2.52118,-3.175 -1.13495,0 -1.41992,0.40106 -0.71025,0.99958 0.75069,0.6331 1.7389,3.87065 2.84353,9.31592 0.51624,2.54483 1.05092,4.83678 1.18817,5.09323 0.36569,0.68331 0.9889,0.56859 1.18642,-0.21838 z m 3.58811,-1.29973 c -0.28228,-5.17474 -2.21963,-13.52329 -3.2971,-14.20803 -0.37877,-0.2407 -1.88374,-0.28009 -2.10864,-0.0552 -0.0861,0.0861 0.0814,0.7112 0.37231,1.38907 0.95966,2.23631 2.87107,11.24108 2.87107,13.5258 0,0.50855 0.89393,1.09297 1.55462,1.01636 0.67451,-0.0782 0.69186,-0.12584 0.60774,-1.66801 z m 6.81657,1.47125 c 0.3244,-0.20527 0.30505,-0.4075 -0.13229,-1.3827 -1.15148,-2.5676 -5.18273,-7.89376 -5.97461,-7.89376 -0.7984,0 0.35601,2.98073 1.75351,4.52759 0.50169,0.55532 1.22362,1.62429 1.60429,2.3755 0.67756,1.3371 1.7403,2.62592 2.15866,2.61786 0.11576,-0.002 0.38145,-0.11225 0.59044,-0.24449 z m 2.41938,-2.24908 c -0.83986,-3.0613 -1.92583,-4.95912 -4.19946,-7.33891 -1.86505,-1.95212 -4.19337,-3.64856 -5.01604,-3.65473 -0.80002,-0.006 -0.15295,1.00012 2.30618,3.58585 2.99224,3.1463 3.76386,4.19175 5.16281,6.995 0.54466,1.0914 1.17667,2.19554 1.40445,2.45364 0.7792,0.88289 0.91761,0.0571 0.34206,-2.04085 z m -6.10665,1.82563 c 0,-0.57488 -0.93192,-2.33331 -1.47583,-2.78471 -0.4242,-0.35205 -0.44688,-0.28188 -0.3236,1.00111 0.0729,0.75884 0.28407,1.56225 0.46923,1.78536 0.43618,0.52556 1.3302,0.52437 1.3302,-0.002 z m -9.78958,-2.78073 c 0,-1.54638 -4.48086,-5.4129 -7.68295,-6.6296 -1.61622,-0.61411 -2.21635,-0.65006 -1.91681,-0.11483 0.4831,0.86325 8.72663,7.02215 9.39897,7.02215 0.11043,0 0.20079,-0.12497 0.20079,-0.27772 z m -1.2014,-4.9965 c 0.2934,-0.47473 -0.70645,-2.43299 -1.3713,-2.68577 -0.7279,-0.27674 -2.5457,0.41 -2.38236,0.90003 0.0894,0.26818 3.04502,2.02329 3.41809,2.02973 0.10055,0.002 0.25156,-0.10806 0.33557,-0.24399 z m -4.15641,-3.59095 c 1.20055,-0.37557 2.18281,-0.80456 2.18281,-0.95331 0,-0.59936 -0.57879,-1.29402 -1.07818,-1.29402 -0.732,0 -2.42581,0.89875 -3.54381,1.88037 -0.9279,0.8147 -1.02489,1.43695 -0.18439,1.18298 0.24242,-0.0733 1.42302,-0.44046 2.62357,-0.81602 z"
       id="path1" /></g></svg>
